#!OML:ASF I:\Actors\actors\Patient Classification 2\Patient 1\Session 1\actor1.ASF
:FULLY-SPECIFIED
:DEGREES
478
root -0.422176 18.881 5.93632 13.2963 4.69041 -0.171193
lowerback 25.2133 -0.950216 2.35134
upperback -0.854573 -0.417387 0.813549
thorax -15.2406 -0.325959 -0.253988
lowerneck -18.8662 -2.05734 -2.60932
upperneck 6.60591 -2.40524 2.52189
head 5.07548 -1.06412 0.98238
rclavicle -1.59028e-015 1.15295e-014
rhumerus -45.1737 -36.3954 -32.991
rradius 53.7166
rwrist 10.0299
rhand -20.5884 -48.3941
rfingers 7.12502
rthumb 5.77178 -78.2955
lclavicle -1.59028e-015 1.15295e-014
lhumerus -32.9708 39.5069 42.6501
lradius 60.2558
lwrist 7.03497
lhand -18.0426 -28.4675
lfingers 7.12502
lthumb 8.22926 1.35219
rfemur -3.83045 -5.6638 13.6469
rtibia 1.27222e-014
rfoot -17.318 -10.7814
rtoes -1.41556
lfemur -20.9493 -1.9231 -13.6628
ltibia 24.2171
lfoot -16.4333 3.58408
ltoes -55.7671
479
root -0.405314 18.8778 5.96058 13.0344 4.74344 -0.205468
lowerback 25.1237 -1.0394 2.27559
upperback -0.862249 -0.569252 0.756193
thorax -15.2017 -0.390409 -0.220829
lowerneck -19.7771 -2.03775 -2.43955
upperneck 6.90045 -2.41537 2.61103
head 5.31011 -1.04955 0.976376
rclavicle -6.4605e-015 -1.59028e-014
rhumerus -43.9974 -36.7893 -36.2556
rradius 53.2011
rwrist 10.5822
rhand -19.4081 -48.0346
rfingers 7.12502
rthumb 6.91119 -77.9017
lclavicle -6.4605e-015 -1.59028e-014
lhumerus -32.6063 39.3529 44.8622
lradius 58.5656
lwrist 6.00341
lhand -16.9394 -27.9362
lfingers 7.12502
lthumb 9.29378 1.83891
rfemur -3.44428 -5.68412 13.6073
rtibia 1.59028e-015
rfoot -17.3657 -10.7801
rtoes -1.36952
lfemur -20.6064 -1.88843 -13.7086
ltibia 24.248
lfoot -16.5492 3.56118
ltoes -55.9674
480
root -0.389005 18.8741 5.99537 12.6756 4.80774 -0.228429
lowerback 24.9815 -1.10446 2.12314
upperback -0.876561 -0.70841 0.732323
thorax -15.1387 -0.441317 -0.110489
lowerneck -20.7066 -2.01442 -2.40216
upperneck 7.43805 -2.40334 2.76661
head 5.6275 -1.02061 1.01504
rclavicle -9.64106e-015 1.55052e-014
rhumerus -42.6941 -36.4659 -39.1821
rradius 53.1849
rwrist 8.11858
rhand -19.1954 -47.4579
rfingers 7.12502
rthumb 7.11655 -77.3182
lclavicle -9.64106e-015 1.55052e-014
lhumerus -32.4428 39.7991 46.0191
lradius 57.3139
lwrist 4.69914
lhand -15.4968 -25.9375
lfingers 7.12502
lthumb 10.6856 3.7708
rfemur -2.91155 -5.70546 13.5534
rtibia 3.18055e-015
rfoot -17.4216 -10.8224
rtoes -1.81938
lfemur -20.1255 -1.81798 -13.7744
ltibia 24.282
lfoot -16.6551 3.48531
ltoes -56.1535
481
root -0.37564 18.8696 6.03765 12.2704 4.89292 -0.265948
lowerback 24.8061 -1.13269 1.89038
upperback -0.924842 -0.818266 0.738588
thorax -15.0943 -0.471612 0.0695075
lowerneck -21.5692 -2.01276 -2.40316
upperneck 8.09914 -2.41789 2.92765
head 5.97681 -1.0039 1.05999
rclavicle 6.31141e-015 -5.56597e-015
rhumerus -41.8841 -36.6382 -40.1649
rradius 53.7197
rwrist 6.21599
rhand -13.6975 -47.8097
rfingers 7.12502
rthumb 12.4208 -77.4206
lclavicle 6.31141e-015 -5.56597e-015
lhumerus -32.4902 40.5548 46.1208
lradius 56.6681
lwrist 3.30561
lhand -11.9794 -22.5806
lfingers 7.12502
lthumb 14.0768 6.92267
rfemur -2.30142 -5.73633 13.5292
rtibia -3.18055e-015
rfoot -17.4535 -10.8754
rtoes -2.24852
lfemur -19.5649 -1.76373 -13.8056
ltibia 24.3101
lfoot -16.7379 3.36762
ltoes -56.2267
482
root -0.36303 18.8652 6.08598 11.8504 4.96628 -0.323151
lowerback 24.5774 -1.12865 1.61605
upperback -1.00906 -0.89808 0.744632
thorax -15.0602 -0.485637 0.261197
lowerneck -22.2914 -2.02603 -2.33338
upperneck 8.86076 -2.475 3.04514
head 6.33872 -1.00828 1.07612
rclavicle -5.76476e-015 -5.96354e-016
rhumerus -41.3782 -36.6725 -39.7637
rradius 53.8486
rwrist 7.35057
rhand -6.41541 -47.4318
rfingers 7.12502
rthumb 19.433 -76.4807
lclavicle -5.76476e-015 -5.96354e-016
lhumerus -32.7583 42.2822 45.1257
lradius 56.5898
lwrist 1.118
lhand -6.02979 -18.8911
lfingers 7.12502
lthumb 19.8037 10.12
rfemur -1.6642 -5.74926 13.5264
rtibia 1.59028e-015
rfoot -17.4505 -10.9245
rtoes -2.50834
lfemur -18.957 -1.85602 -13.7894
ltibia 24.3348
lfoot -16.8619 3.34991
ltoes -56.1947
483
root -0.348112 18.8599 6.1426 11.3036 5.05892 -0.422508
lowerback 24.3687 -1.12619 1.41004
upperback -1.09592 -0.960397 0.738008
thorax -15.0412 -0.498025 0.392537
lowerneck -22.763 -2.04411 -2.23189
upperneck 9.74099 -2.56203 3.17425
head 6.70369 -1.02463 1.08887
rclavicle 4.17448e-015 -1.89839e-014
rhumerus -40.8785 -36.0093 -38.475
rradius 54.2085
rwrist 3.67246
rhand 0.336955 -47.4275
rfingers 7.12502
rthumb 25.9131 -75.6815
lclavicle 4.17448e-015 -1.89839e-014
lhumerus -32.6149 42.3845 43.367
lradius 56.5467
lwrist 1.33246
lhand 1.67641 -14.1958
lfingers 7.12502
lthumb 27.1951 13.8642
rfemur -0.861973 -5.75901 13.5494
rtibia -1.27222e-014
rfoot -17.4643 -10.9602
rtoes -2.63389
lfemur -18.1775 -2.06186 -13.7246
ltibia 24.3611
lfoot -17.0267 3.36329
ltoes -56.0932
484
root -0.330395 18.8525 6.20325 10.6374 5.16114 -0.551465
lowerback 24.2302 -1.11157 1.30954
upperback -1.18218 -0.978494 0.700636
thorax -15.0637 -0.500687 0.412719
lowerneck -23.0356 -2.08594 -2.18466
upperneck 10.7382 -2.68504 3.35783
head 7.08166 -1.05428 1.12489
rclavicle -1.01132e-014 4.77083e-015
rhumerus -40.7168 -35.3242 -35.8459
rradius 54.345
rwrist 2.37141
rhand 7.57723 -46.9492
rfingers 7.12502
rthumb 32.825 -73.9862
lclavicle -1.01132e-014 4.77083e-015
lhumerus -32.2104 42.2144 40.974
lradius 56.7542
lwrist 1.97489
lhand 10.5476 -9.67653
lfingers 7.12502
lthumb 35.6455 16.7263
rfemur 0.0793154 -5.76106 13.5758
rtibia 1.27222e-014
rfoot -17.4848 -10.9949
rtoes -2.6812
lfemur -17.2548 -2.3311 -13.6433
ltibia 24.3909
lfoot -17.238 3.38592
ltoes -55.9719
485
root -0.312346 18.8471 6.26299 10.0183 5.22657 -0.661851
lowerback 24.0347 -1.05711 1.2006
upperback -1.28703 -0.949952 0.644817
thorax -15.0753 -0.483039 0.398713
lowerneck -23.1146 -2.15161 -2.12937
upperneck 11.7558 -2.83802 3.46306
head 7.43813 -1.10542 1.13091
rclavicle 1.98785e-015 1.17283e-014
rhumerus -40.4557 -34.1558 -32.7828
rradius 54.497
rwrist -0.0814948
rhand 9.10169 -47.5297
rfingers 7.12502
rthumb 34.2738 -74.2523
lclavicle 1.98785e-015 1.17283e-014
lhumerus -31.3405 41.6995 38.1504
lradius 56.7209
lwrist 3.08761
lhand 18.5434 -6.82543
lfingers 7.12502
lthumb 43.1758 17.3581
rfemur 0.955252 -5.73668 13.5823
rtibia 1.59028e-015
rfoot -17.4493 -11.0823
rtoes -3.00905
lfemur -16.3873 -2.5432 -13.597
ltibia 24.4164
lfoot -17.4186 3.43997
ltoes -55.9758
486
root -0.294748 18.8437 6.32194 9.39841 5.25436 -0.780588
lowerback 23.8249 -0.983795 1.05456
upperback -1.38183 -0.903566 0.611568
thorax -15.0652 -0.453076 0.42527
lowerneck -22.9323 -2.18253 -1.95624
upperneck 12.6649 -2.94533 3.35105
head 7.7114 -1.15351 1.05246
rclavicle -8.33653e-015 -4.02539e-015
rhumerus -39.9732 -32.8775 -29.3183
rradius 54.4767
rwrist -2.25641
rhand 11.2334 -48.1452
rfingers 7.12502
rthumb 36.2953 -74.3886
lclavicle -8.33653e-015 -4.02539e-015
lhumerus -30.1741 41.4286 34.8652
lradius 56.6991
lwrist 3.33579
lhand 30.0847 -2.33264
lfingers 7.12502
lthumb 53.7831 16.651
rfemur 1.82251 -5.67443 13.5983
rtibia 0
rfoot -17.3568 -11.198
rtoes -3.55946
lfemur -15.497 -2.74653 -13.5551
ltibia 24.4139
lfoot -17.5272 3.62901
ltoes -56.1183
487
root -0.278209 18.8397 6.37833 8.74004 5.26511 -0.895332
lowerback 23.6909 -0.901209 0.950322
upperback -1.42909 -0.835099 0.553187
thorax -15.0431 -0.417784 0.391639
lowerneck -22.7764 -2.20391 -1.77399
upperneck 13.6267 -3.02985 3.16894
head 8.00575 -1.19602 0.951243
rclavicle -1.19721e-014 6.95746e-015
rhumerus -39.3329 -31.7132 -25.5364
rradius 54.2462
rwrist -3.7046
rhand 12.057 -47.5911
rfingers 7.12502
rthumb 37.0746 -73.6362
lclavicle -1.19721e-014 6.95746e-015
lhumerus -28.6001 40.3869 31.5575
lradius 56.4727
lwrist 4.04443
lhand 38.1492 -0.492476
lfingers 7.12502
lthumb 60.844 12.3702
rfemur 2.72563 -5.59263 13.6011
rtibia 0
rfoot -17.2597 -11.2805
rtoes -3.7656
lfemur -14.5538 -3.08954 -13.5211
ltibia 24.4141
lfoot -17.669 3.92317
ltoes -56.1306
